<svg width="10" height="18" viewBox="0 0 10 18" fill="none" xmlns="http://www.w3.org/2000/svg">
<path d="M1.48754 5.4876L4.18176 2.79338V17.1818C4.18176 17.6337 4.54808 18 4.99994 18C5.45179 18 5.81812 17.6337 5.81812 17.1818V2.79338L8.51234 5.4876C8.67205 5.64736 8.88145 5.72727 9.09085 5.72727C9.30025 5.72727 9.50965 5.64736 9.66936 5.4876C9.98889 5.16813 9.98889 4.65005 9.66936 4.33052L5.57845 0.239615C5.25898 -0.0799123 4.7409 -0.0799123 4.42138 0.239615L0.330466 4.33052C0.0109385 4.65 0.0109385 5.16807 0.330466 5.4876C0.649993 5.80707 1.16807 5.80707 1.48754 5.4876Z" fill="#52BA00"/>
</svg>
